<?xml version="1.0" standalone="no"?>
<!DOCTYPE svg PUBLIC "-//W3C//DTD SVG 20010904//EN"
 "http://www.w3.org/TR/2001/REC-SVG-20010904/DTD/svg10.dtd">
<svg version="1.0" xmlns="http://www.w3.org/2000/svg"
 width="800.000000pt" height="700.000000pt" viewBox="0 0 800.000000 700.000000"
 preserveAspectRatio="xMidYMid meet">

<g transform="translate(0.000000,700.000000) scale(0.100000,-0.100000)"
fill="#000000" stroke="none">
<path d="M1835 5170 c-68 -10 -105 -30 -154 -86 -74 -85 -71 -29 -71 -1145 0
-863 -2 -1001 -15 -1032 -19 -46 -19 -74 0 -111 21 -39 19 -63 -6 -76 -22 -12
-49 -66 -49 -100 0 -11 15 -37 34 -57 l34 -38 5 -155 c2 -85 10 -171 17 -190
12 -35 14 -36 144 -75 122 -37 139 -40 251 -39 113 0 124 2 188 32 l68 31 39
-36 40 -35 38 78 c20 44 38 82 40 87 2 4 -30 7 -72 7 -42 0 -76 2 -76 5 0 2
11 21 25 41 50 74 45 133 -28 305 l-45 104 -52 -3 c-28 -2 -64 1 -80 8 l-29
12 33 67 c27 52 33 78 33 124 0 38 5 64 15 73 18 19 48 8 48 -17 0 -25 17 -24
25 1 8 26 62 70 86 70 33 0 77 -28 81 -51 3 -22 4 -22 36 5 38 32 41 60 12
116 -23 46 -60 74 -118 89 -57 16 -107 1 -171 -49 -28 -22 -57 -40 -65 -40 -8
0 -21 -9 -29 -21 l-15 -20 -33 20 c-47 29 -101 27 -136 -3 -23 -20 -28 -32
-27 -70 0 -25 -1 -46 -3 -46 -2 0 -22 9 -44 20 -23 12 -50 19 -62 16 -12 -3
-16 -3 -9 0 9 4 12 208 12 967 0 671 3 974 11 1002 6 22 28 56 49 77 l38 38
133 0 c74 0 526 -9 1004 -20 479 -11 1450 -34 2159 -50 1421 -32 1320 -26
1370 -93 l21 -29 0 -1261 c0 -1407 4 -1315 -69 -1386 l-33 -32 27 -68 c16 -38
38 -107 50 -154 28 -113 23 -123 -66 -133 -71 -7 -207 1 -229 13 -10 7 -186
225 -244 304 -18 26 -141 28 -162 3 -23 -28 -130 -96 -188 -119 -56 -23 -181
-33 -181 -14 0 5 26 25 58 45 71 46 132 93 132 104 0 6 -1408 28 -1432 22 -12
-3 -10 15 17 158 14 73 25 134 25 136 0 2 17 4 38 4 l38 0 -4 40 c-3 31 1 46
19 68 13 15 33 45 44 65 11 20 22 37 25 37 3 0 4 -47 2 -105 l-3 -105 65 0 66
0 0 227 0 227 32 62 c18 35 30 65 27 69 -11 10 -77 18 -103 11 -15 -4 -26 -14
-28 -29 -3 -21 -8 -22 -101 -25 -95 -3 -98 -2 -92 18 6 18 2 20 -32 19 -93 -3
-94 -5 -125 -109 -15 -52 -28 -95 -28 -96 0 0 25 -6 55 -13 52 -12 66 -23 45
-36 -5 -3 -7 -12 -3 -20 3 -9 -1 -15 -11 -15 -10 0 -13 -5 -9 -17 5 -13 2 -15
-11 -10 -12 5 -28 -2 -48 -18 -16 -14 -37 -25 -47 -25 -9 0 -22 -5 -29 -12
-15 -15 -98 -14 -144 1 -42 14 -75 47 -87 87 -12 44 11 123 74 250 51 104 59
114 112 150 32 20 59 38 60 39 2 1 15 57 31 126 27 122 27 124 10 162 -10 21
-16 42 -13 47 10 16 33 11 44 -7 8 -15 10 -11 11 18 0 52 33 91 74 87 26 -3
35 -11 58 -57 48 -93 30 -181 -35 -181 -21 0 -25 -7 -36 -65 -8 -37 -11 -69
-7 -72 3 -4 6 -1 6 6 0 7 5 9 13 4 12 -8 94 -32 112 -33 6 0 10 73 10 200 l0
200 -27 0 c-24 0 -28 4 -28 30 0 37 -27 65 -78 81 -33 10 -45 9 -77 -7 -39
-18 -85 -80 -105 -140 -9 -26 -25 -41 -71 -65 -68 -37 -109 -79 -109 -114 0
-41 -45 -82 -102 -94 -116 -25 -190 -73 -232 -151 -39 -71 -45 -151 -18 -214
19 -42 29 -50 84 -75 88 -40 101 -58 103 -135 1 -74 17 -104 77 -143 33 -22
53 -28 98 -28 54 0 57 -1 49 -20 -5 -11 -20 -92 -34 -180 -15 -88 -29 -170
-32 -183 l-5 -23 -361 3 -361 3 -40 -101 c-23 -56 -47 -108 -54 -117 -13 -15
-1 -17 130 -19 136 -3 143 -4 142 -23 -1 -11 -4 -27 -8 -36 -6 -14 15 -17 201
-22 l208 -5 27 25 c24 23 32 25 74 18 64 -9 74 -14 67 -32 -5 -14 7 -15 103
-9 60 3 128 9 152 12 34 5 42 3 42 -10 0 -14 23 -16 203 -16 112 0 346 -3 519
-7 l315 -6 5 21 c6 21 4 22 -160 24 -182 3 -184 4 -163 61 l11 27 404 0 c390
0 406 -1 416 -19 5 -11 10 -29 10 -40 0 -19 -6 -21 -68 -21 -38 0 -123 -3
-189 -6 -107 -6 -120 -9 -116 -24 4 -15 28 -18 206 -23 111 -4 303 -7 426 -7
123 0 222 -2 219 -5 -2 -3 -83 -14 -179 -25 -199 -23 -348 -47 -399 -64 -47
-15 -61 -47 -58 -131 2 -61 -1 -75 -25 -113 -16 -24 -33 -54 -39 -68 -6 -13
-15 -24 -19 -24 -4 0 -4 -12 1 -27 5 -16 19 -65 31 -111 11 -45 24 -82 28 -82
3 0 17 16 31 35 14 19 28 35 31 35 3 0 21 -64 40 -141 18 -78 39 -148 46 -155
29 -29 15 -41 -39 -36 -47 4 -51 3 -44 -14 4 -10 10 -34 13 -52 l6 -32 82 0
c54 0 86 4 93 13 7 8 3 35 -13 87 -22 73 -39 222 -50 435 -5 94 -4 103 22 155
l28 55 190 6 c417 13 493 19 527 43 53 36 70 80 63 161 l-5 70 41 25 c22 14
54 43 70 65 62 84 61 61 66 965 7 1028 -8 1562 -52 1855 -21 142 -54 211 -125
260 -54 38 -89 44 -260 49 -1363 40 -2001 54 -3435 76 -688 11 -927 11 -1000
0z m-128 -2186 c-3 -3 -12 -4 -19 -1 -8 3 -5 6 6 6 11 1 17 -2 13 -5z m-38 -7
c-2 -1 -13 -9 -24 -17 -19 -14 -19 -14 -6 3 7 9 18 17 24 17 6 0 8 -1 6 -3z
m41 -495 c-9 -3 -90 35 -90 43 0 2 22 -6 49 -18 27 -12 45 -23 41 -25z m94
-36 c-37 -44 -39 -45 -47 -24 -16 43 -5 63 38 68 22 3 42 5 44 3 1 -1 -14 -22
-35 -47z m94 -176 c-7 -10 -14 -17 -17 -15 -4 4 18 35 25 35 2 0 -1 -9 -8 -20z"/>
<path d="M4620 3763 l0 -506 25 23 c37 35 74 117 81 183 5 39 14 65 30 82 27
29 64 34 64 8 0 -13 8 -9 33 15 18 18 38 32 44 32 10 0 23 22 23 40 0 22 -36
16 -90 -17 -33 -19 -63 -40 -66 -44 -20 -33 -24 21 -24 341 l0 350 -60 0 -60
0 0 -507z"/>
<path d="M5045 3265 l0 -765 63 0 62 0 0 765 0 765 -62 0 -63 0 0 -765z"/>
<path d="M5260 3135 l0 -635 60 0 60 0 0 635 0 635 -60 0 -60 0 0 -635z"/>
<path d="M5470 2990 l0 -490 65 0 65 0 -2 488 -3 487 -62 3 -63 3 0 -491z"/>
<path d="M4402 3258 c5 -13 106 -31 120 -22 5 3 8 12 8 20 0 11 -15 14 -66 14
-48 0 -65 -3 -62 -12z"/>
<path d="M4730 3216 c0 -8 -25 -42 -55 -74 l-55 -60 0 -291 0 -291 60 0 60 0
0 365 c0 201 -2 365 -5 365 -3 0 -5 -6 -5 -14z"/>
<path d="M5762 3137 c-38 -42 -36 -92 5 -122 11 -9 8 -22 -17 -79 -18 -38 -34
-93 -37 -122 -5 -50 -5 -53 25 -68 17 -9 44 -16 59 -16 23 0 34 -9 56 -42 15
-24 30 -53 33 -65 6 -20 8 -20 62 18 31 22 62 37 70 34 8 -3 -5 16 -28 42
l-41 47 36 14 c26 10 35 20 35 37 0 13 7 25 14 28 22 9 48 65 41 87 -4 11 -15
20 -26 20 -14 0 -19 7 -19 26 0 36 -53 83 -126 113 -33 13 -66 31 -74 40 -26
29 -46 31 -68 8z"/>
<path d="M3959 2962 c-20 -31 -41 -72 -48 -90 -18 -56 14 -92 82 -92 34 0 35
1 41 48 8 59 -15 192 -32 192 -4 0 -23 -26 -43 -58z"/>
<path d="M4830 2710 l0 -210 63 0 62 0 0 210 0 210 -62 0 -63 0 0 -210z"/>
<path d="M6070 2646 c0 -2 8 -10 18 -17 15 -13 16 -12 3 4 -13 16 -21 21 -21
13z"/>
<path d="M6120 2607 c0 -1 35 -36 78 -77 l77 -75 -75 78 c-69 71 -80 82 -80
74z"/>
<path d="M6270 2446 c0 -2 8 -10 18 -17 15 -13 16 -12 3 4 -13 16 -21 21 -21
13z"/>
<path d="M1655 1830 l-18 -40 32 -72 c38 -86 51 -98 106 -98 l42 0 52 118 c28
64 51 120 51 125 0 4 -56 7 -123 7 l-124 0 -18 -40z"/>
<path d="M1955 1838 c-7 -18 -31 -73 -53 -123 -39 -88 -39 -90 -18 -97 11 -3
101 -6 198 -7 162 -1 180 1 200 18 13 11 77 65 143 121 66 56 122 106 123 111
2 5 -112 9 -288 9 l-291 0 -14 -32z"/>
<path d="M1630 1696 c0 -8 4 -17 9 -20 5 -4 7 3 4 14 -6 23 -13 26 -13 6z"/>
<path d="M5372 1298 c-85 -143 -162 -279 -162 -288 0 -8 -16 -39 -36 -69 -2
-2 -24 16 -49 40 -44 41 -81 68 -97 69 -3 0 -13 -19 -21 -43 l-14 -42 89 -73
c50 -39 96 -72 104 -72 8 0 28 28 43 63 21 45 54 88 124 159 l95 98 -23 91
c-13 50 -25 93 -28 95 -3 3 -14 -10 -25 -28z"/>
<path d="M3981 1241 c-7 -12 -7 -39 -1 -76 11 -68 20 -83 20 -33 0 60 20 64
70 13 39 -39 49 -45 87 -45 24 0 43 5 43 10 0 6 -6 10 -14 10 -22 0 -165 102
-172 122 -7 23 -21 23 -33 -1z"/>
<path d="M3396 1155 c-17 -46 -9 -55 49 -55 50 0 56 2 65 26 13 34 13 41 -2
26 -18 -18 -85 -15 -96 4 -8 15 -10 15 -16 -1z"/>
<path d="M2245 1103 c8 -44 58 -168 80 -200 18 -25 85 -37 151 -27 l47 7 -24
18 c-14 11 -41 19 -66 19 -77 0 -90 15 -118 143 -17 75 -18 77 -47 77 -29 0
-30 -1 -23 -37z"/>
<path d="M4917 1044 c-8 -8 1 -24 13 -24 4 0 10 7 14 15 5 15 -14 21 -27 9z"/>
<path d="M2781 932 c-20 -37 -5 -48 87 -60 48 -6 128 -14 177 -17 l90 -6 -36
33 c-33 29 -42 33 -85 30 -44 -3 -163 16 -206 33 -11 4 -20 0 -27 -13z"/>
<path d="M5445 899 c-19 -17 -32 -35 -29 -40 3 -5 28 -9 55 -9 46 0 50 2 45
20 -3 11 -9 29 -12 40 -7 27 -17 25 -59 -11z"/>
</g>
</svg>
